# xmcd
# 
# Track frame offsets:
#     150
#     22347
#     33871
#     47583
#     57966
#     71735
#     83713
#     95334
#     112365
#     126193
#     137386
#     151078
#     165204
#     173403
#     188930
#     204869
#     216519
#     239723
#     255277
# 
# Disc length: 3463
# 
# Revision: 227901162
# Processed by: cddbd v1.5.2PL0 Copyright (c) Steve Scherf et al.
# Submitted via: fre:ac v1.0.31
# 
DISCID=000d8513
DTITLE=Bob Dylan - Dylan, Cash, And The Nashville Cats: A New Music City Disc 1
DYEAR=2015
DGENRE=Country
TTITLE0=Bob Dylan - Absolutely Sweet Marie
TTITLE1=Charlie Mccoy And The Escorts - Harpoon Man
TTITLE2=Johnny Cash - It Ain't Me, Babe
TTITLE3=Flatt and Scruggs - Down In The Flood
TTITLE4=Gordon Lightfoot - The Way I Feel
TTITLE5=Bob Dylan - I'll Be Your Baby Tonight
TTITLE6=The Byrds - You Ain't Goin' Nowhere
TTITLE7=Ian and Sylvia - This Wheel's On Fire
TTITLE8=John Hartford - Gentle On My Mind
TTITLE9=The Monkees - Some Of Shelly's Blues
TTITLE10=The Beau Brummels - Turn Around
TTITLE11=Tracy Nelson - I'm So Lonesome I Could Cry
TTITLE12=Kris Kristofferson - If You Don't Like Hank Williams [1968 Demo]
TTITLE13=Leonard Cohen - Bird On The Wire
TTITLE14=The Byrds - Hickory Wind
TTITLE15=Country Joe Mcdonald - Blowing Down That Dusty Road
TTITLE16=Simon and Garfunkel - The Boxer
TTITLE17=Area Code 615 - Stone Fox Chase
TTITLE18=The Byrds - Radio Ad For The Byrds' Sweetheart Of The Rodeo
EXTD=
EXTT0=
EXTT1=
EXTT2=
EXTT3=
EXTT4=
EXTT5=
EXTT6=
EXTT7=
EXTT8=
EXTT9=
EXTT10=
EXTT11=
EXTT12=
EXTT13=
EXTT14=
EXTT15=
EXTT16=
EXTT17=
EXTT18=
PLAYORDER=
